<svg xmlns="http://www.w3.org/2000/svg" xmlns:xlink="http://www.w3.org/1999/xlink" width="300" zoomAndPan="magnify" viewBox="0 0 224.87999 112.499997" height="150" preserveAspectRatio="xMidYMid meet" version="1.0"><defs><g/><clipPath id="5da9073336"><path d="M 0.4375 0 L 224.324219 0 L 224.324219 112.003906 L 0.4375 112.003906 Z M 0.4375 0 " clip-rule="nonzero"/></clipPath><clipPath id="0d513f1f59"><path d="M 56.808594 26.308594 L 167.8125 26.308594 L 167.8125 66.59375 L 56.808594 66.59375 Z M 56.808594 26.308594 " clip-rule="nonzero"/></clipPath><clipPath id="44e07bbfd6"><path d="M 66.777344 14.328125 L 134.816406 14.328125 L 134.816406 66.59375 L 66.777344 66.59375 Z M 66.777344 14.328125 " clip-rule="nonzero"/></clipPath><clipPath id="8ff8c449a9"><path d="M 68 14.328125 L 113 14.328125 L 113 62 L 68 62 Z M 68 14.328125 " clip-rule="nonzero"/></clipPath></defs><g clip-path="url(#5da9073336)"><path fill="#ffffff" d="M 0.4375 0 L 224.441406 0 L 224.441406 119.46875 L 0.4375 119.46875 Z M 0.4375 0 " fill-opacity="1" fill-rule="nonzero"/><path fill="#ffffff" d="M 0.4375 0 L 224.441406 0 L 224.441406 112.003906 L 0.4375 112.003906 Z M 0.4375 0 " fill-opacity="1" fill-rule="nonzero"/><path fill="#ffffff" d="M 0.4375 0 L 224.441406 0 L 224.441406 112.003906 L 0.4375 112.003906 Z M 0.4375 0 " fill-opacity="1" fill-rule="nonzero"/></g><g clip-path="url(#0d513f1f59)"><path fill="#d9d9d9" d="M 114.382812 29.414062 C 121.699219 30.160156 128.269531 33.257812 135.261719 35.042969 C 143.738281 37.203125 151.921875 39.679688 160.878906 39.53125 C 162.082031 39.5 167.105469 39.042969 167.816406 38.894531 C 158.226562 37.402344 148.734375 35.816406 139.382812 33.523438 C 130.605469 31.375 121.917969 27.992188 112.832031 26.839844 C 106.527344 26.023438 100.792969 26.625 94.125 28.546875 C 79.972656 32.617188 66.980469 37.945312 56.808594 47.972656 C 72.625 37.261719 92.859375 27.222656 114.382812 29.414062 Z M 126.140625 50.210938 C 115.886719 46.566406 89.105469 50.214844 76.210938 66.59375 C 76.210938 66.59375 102.132812 45.59375 128.496094 53.222656 C 151.429688 59.863281 165.148438 56.75 165.148438 56.75 L 161.222656 55.894531 C 161.222656 55.894531 139.289062 54.882812 126.140625 50.210938 Z M 73.695312 56.277344 C 86.589844 39.898438 115.097656 37.300781 125.453125 40.644531 C 139.40625 45.144531 157.710938 45.546875 157.710938 45.546875 L 162.632812 46.433594 C 162.632812 46.433594 152.894531 49.351562 125.984375 42.90625 C 99.292969 36.519531 73.695312 56.277344 73.695312 56.277344 " fill-opacity="1" fill-rule="nonzero"/></g><path fill="#000000" d="M 106.296875 29.753906 C 106.296875 29.753906 105.792969 33.710938 103.601562 34.570312 C 103.601562 34.570312 106.140625 35.78125 106.324219 38.351562 C 106.335938 38.519531 107.1875 34.890625 109.253906 34.339844 C 109.253906 34.339844 106.597656 33.394531 106.296875 29.753906 Z M 135.890625 36.886719 C 135.867188 36.546875 134.144531 43.890625 129.957031 45.003906 C 129.957031 45.003906 135.335938 46.914062 135.945312 54.289062 C 135.945312 54.289062 136.953125 46.808594 140.714844 45.746094 C 140.714844 45.746094 136.261719 42.085938 135.890625 36.886719 Z M 118.15625 54.289062 L 120.390625 52.289062 L 123.914062 20.539062 L 122.625 17.609375 Z M 92.828125 21.078125 L 95.355469 37.332031 L 97.882812 36.503906 L 94.6875 20.351562 Z M 70.421875 26.472656 L 71.957031 47.984375 L 73.246094 46.625 L 72.675781 26.496094 Z M 81.3125 39.46875 C 80.773438 39.089844 79.800781 38.863281 79.199219 39.203125 C 79.011719 39.214844 78.828125 39.285156 78.675781 39.4375 C 77.878906 40.238281 77.910156 41.480469 78.738281 42.246094 C 79.652344 43.089844 81.101562 43.160156 81.96875 42.222656 C 82.796875 41.332031 82.152344 40.066406 81.3125 39.46875 Z M 155.238281 54.078125 C 154.367188 55.011719 152.921875 54.945312 152.003906 54.101562 C 151.179688 53.335938 151.144531 52.09375 151.941406 51.292969 C 152.097656 51.136719 152.277344 51.070312 152.46875 51.058594 C 153.070312 50.71875 154.042969 50.945312 154.578125 51.324219 C 155.421875 51.921875 156.0625 53.1875 155.238281 54.078125 " fill-opacity="1" fill-rule="nonzero"/><g clip-path="url(#44e07bbfd6)"><path fill="#000000" d="M 103.742188 59.957031 C 102.632812 59.796875 101.488281 60.3125 100.734375 61.144531 C 99.980469 61.972656 99.582031 63.082031 99.441406 64.195312 C 99.382812 64.65625 99.367188 65.132812 99.511719 65.574219 C 99.660156 66.019531 99.988281 66.417969 100.4375 66.546875 C 100.734375 66.632812 101.058594 66.589844 101.355469 66.5 C 102.191406 66.246094 102.882812 65.644531 103.386719 64.929688 C 103.890625 64.21875 104.21875 63.402344 104.515625 62.582031 C 104.6875 62.09375 104.855469 61.574219 104.75 61.070312 C 104.648438 60.5625 104.25 59.867188 103.742188 59.957031 Z M 134.101562 17.125 C 133.519531 16.164062 132.523438 15.453125 131.433594 14.992188 C 128.949219 13.9375 125.875 14.152344 123.597656 15.539062 C 122.898438 15.964844 122.234375 16.546875 122.09375 17.304688 C 122.21875 17.984375 122.464844 18.269531 122.882812 18.847656 C 123.761719 20.0625 125.140625 20.933594 126.644531 21.417969 C 128.152344 21.902344 129.773438 22.015625 131.367188 21.925781 C 132.367188 21.871094 133.46875 21.683594 134.082031 20.953125 C 134.316406 20.671875 134.457031 20.332031 134.542969 19.988281 C 134.785156 19.027344 134.625 17.988281 134.101562 17.125 Z M 99.335938 34.148438 C 98.792969 33.511719 97.984375 33.277344 97.1875 33.351562 C 97.125 33.324219 97.058594 33.304688 96.980469 33.300781 C 95.1875 33.179688 93.835938 34.273438 92.726562 35.558594 C 91.75 36.6875 90.953125 37.964844 90.351562 39.332031 C 89.746094 40.71875 89.363281 42.203125 89.199219 43.707031 C 89.054688 45.019531 88.882812 46.875 89.742188 47.988281 C 90.667969 49.183594 92.460938 48.902344 93.6875 48.40625 C 94.96875 47.882812 96.15625 46.953125 97.085938 45.9375 C 98.925781 43.917969 100.035156 41.320312 100.242188 38.59375 C 100.355469 37.136719 100.332031 35.316406 99.335938 34.148438 Z M 76.527344 46.042969 C 76.71875 46.964844 76.417969 47.910156 76.097656 48.792969 C 75.5625 50.285156 74.964844 51.773438 74.050781 53.066406 C 73.132812 54.359375 71.871094 55.457031 70.359375 55.914062 C 69.816406 56.078125 69.230469 56.15625 68.683594 56.003906 C 67.871094 55.769531 67.269531 55.039062 67.007812 54.238281 C 66.742188 53.433594 66.769531 52.5625 66.878906 51.726562 C 67.132812 49.703125 67.859375 47.6875 69.230469 46.179688 C 70.601562 44.671875 72.675781 43.734375 74.691406 44.027344 C 75.617188 43.855469 76.339844 45.121094 76.527344 46.042969 " fill-opacity="1" fill-rule="nonzero"/></g><g clip-path="url(#8ff8c449a9)"><path fill="#000000" d="M 102.101562 46.800781 C 102.367188 47.316406 102.875 56.191406 102.933594 59.957031 C 103.199219 59.921875 103.472656 59.917969 103.742188 59.957031 C 104.25 59.867188 104.648438 60.5625 104.75 61.070312 L 103.777344 48.1875 C 107.324219 48.121094 110.683594 46.800781 110.683594 46.800781 L 111.363281 50.59375 L 112.558594 50.457031 L 112.777344 44.761719 C 109.84375 45.082031 101.765625 46.152344 102.101562 46.800781 Z M 93.707031 14.511719 L 95.355469 19.253906 C 95.355469 19.253906 94.6875 25.492188 68.945312 27.542969 L 69.625 25.113281 C 69.625 25.113281 85.316406 23.398438 93.707031 14.511719 " fill-opacity="1" fill-rule="nonzero"/></g><g fill="#000000" fill-opacity="1"><g transform="translate(42.953971, 90.24041)"><g><path d="M 4.921875 0 L 1.28125 0 L 1.28125 -13.65625 C 1.28125 -15.945312 2.351562 -17.09375 4.5 -17.09375 L 6.421875 -17.09375 C 7.691406 -17.09375 8.59375 -16.675781 9.125 -15.84375 C 9.632812 -16.675781 10.539062 -17.09375 11.84375 -17.09375 L 13.765625 -17.09375 C 15.910156 -17.09375 16.984375 -15.945312 16.984375 -13.65625 L 16.984375 0 L 13.34375 0 L 13.34375 -13.96875 C 13.34375 -14.101562 13.296875 -14.222656 13.203125 -14.328125 C 13.109375 -14.429688 12.992188 -14.484375 12.859375 -14.484375 L 11.453125 -14.484375 C 11.304688 -14.484375 11.1875 -14.429688 11.09375 -14.328125 C 11 -14.222656 10.953125 -14.101562 10.953125 -13.96875 L 10.953125 0 L 7.3125 0 L 7.3125 -13.96875 C 7.3125 -14.101562 7.265625 -14.222656 7.171875 -14.328125 C 7.078125 -14.429688 6.957031 -14.484375 6.8125 -14.484375 L 5.40625 -14.484375 C 5.269531 -14.484375 5.15625 -14.429688 5.0625 -14.328125 C 4.96875 -14.222656 4.921875 -14.101562 4.921875 -13.96875 Z M 4.921875 0 "/></g></g></g><g fill="#000000" fill-opacity="1"><g transform="translate(61.137501, 90.24041)"><g><path d="M 7.3125 -16.828125 L 10.953125 -16.828125 L 10.953125 -3.171875 C 10.953125 -0.878906 9.878906 0.265625 7.734375 0.265625 L 4.5 0.265625 C 2.351562 0.265625 1.28125 -0.878906 1.28125 -3.171875 L 1.28125 -16.828125 L 4.921875 -16.828125 L 4.921875 -2.859375 C 4.921875 -2.722656 4.96875 -2.601562 5.0625 -2.5 C 5.15625 -2.394531 5.269531 -2.34375 5.40625 -2.34375 L 6.8125 -2.34375 C 6.957031 -2.34375 7.078125 -2.394531 7.171875 -2.5 C 7.265625 -2.601562 7.3125 -2.722656 7.3125 -2.859375 Z M 7.3125 -16.828125 "/></g></g></g><g fill="#000000" fill-opacity="1"><g transform="translate(73.285862, 90.24041)"><g><path d="M 10.640625 -12.40625 L 7.1875 -12.40625 L 7.1875 -13.734375 C 7.1875 -13.867188 7.132812 -13.988281 7.03125 -14.09375 C 6.9375 -14.195312 6.820312 -14.25 6.6875 -14.25 L 5.25 -14.25 C 5.113281 -14.25 5 -14.195312 4.90625 -14.09375 C 4.8125 -13.988281 4.765625 -13.867188 4.765625 -13.734375 L 4.765625 -10.75 C 4.765625 -10.601562 4.8125 -10.476562 4.90625 -10.375 C 5 -10.269531 5.113281 -10.21875 5.25 -10.21875 L 7.59375 -10.21875 C 9.75 -10.1875 10.828125 -9.046875 10.828125 -6.796875 L 10.828125 -3.171875 C 10.828125 -0.878906 9.75 0.265625 7.59375 0.265625 L 4.53125 0.265625 C 2.375 0.265625 1.296875 -0.878906 1.296875 -3.171875 L 1.296875 -4.921875 L 4.765625 -4.921875 L 4.765625 -3.046875 C 4.765625 -2.898438 4.8125 -2.773438 4.90625 -2.671875 C 5 -2.578125 5.113281 -2.53125 5.25 -2.53125 L 6.875 -2.53125 C 7.007812 -2.53125 7.125 -2.578125 7.21875 -2.671875 C 7.3125 -2.773438 7.359375 -2.898438 7.359375 -3.046875 L 7.359375 -6.34375 C 7.359375 -6.488281 7.3125 -6.613281 7.21875 -6.71875 C 7.125 -6.820312 7.007812 -6.875 6.875 -6.875 L 4.53125 -6.875 C 2.375 -6.875 1.296875 -8.015625 1.296875 -10.296875 L 1.296875 -13.65625 C 1.296875 -15.945312 2.375 -17.09375 4.53125 -17.09375 L 7.421875 -17.09375 C 9.566406 -17.09375 10.640625 -15.945312 10.640625 -13.65625 Z M 10.640625 -12.40625 "/></g></g></g><g fill="#000000" fill-opacity="1"><g transform="translate(85.200109, 90.24041)"><g><path d="M 4.9375 -16.828125 L 4.9375 0 L 1.296875 0 L 1.296875 -16.828125 Z M 4.9375 -16.828125 "/></g></g></g><g fill="#000000" fill-opacity="1"><g transform="translate(91.547433, 90.24041)"><g><path d="M 7.578125 -2.75 L 7.578125 -5.359375 L 11.03125 -5.359375 L 11.03125 -3.171875 C 11.03125 -0.878906 9.953125 0.265625 7.796875 0.265625 L 4.53125 0.265625 C 2.375 0.265625 1.296875 -0.878906 1.296875 -3.171875 L 1.296875 -13.65625 C 1.296875 -15.945312 2.375 -17.09375 4.53125 -17.09375 L 7.796875 -17.09375 C 9.953125 -17.09375 11.03125 -15.945312 11.03125 -13.65625 L 11.03125 -12.078125 L 7.578125 -12.078125 L 7.578125 -14.09375 C 7.578125 -14.238281 7.523438 -14.363281 7.421875 -14.46875 C 7.328125 -14.570312 7.210938 -14.625 7.078125 -14.625 L 5.4375 -14.625 C 5.300781 -14.625 5.179688 -14.570312 5.078125 -14.46875 C 4.984375 -14.363281 4.9375 -14.238281 4.9375 -14.09375 L 4.9375 -2.75 C 4.9375 -2.613281 4.984375 -2.492188 5.078125 -2.390625 C 5.179688 -2.285156 5.300781 -2.234375 5.4375 -2.234375 L 7.078125 -2.234375 C 7.210938 -2.234375 7.328125 -2.285156 7.421875 -2.390625 C 7.523438 -2.492188 7.578125 -2.613281 7.578125 -2.75 Z M 7.578125 -2.75 "/></g></g></g><g fill="#000000" fill-opacity="1"><g transform="translate(103.46168, 90.24041)"><g/></g></g><g fill="#000000" fill-opacity="1"><g transform="translate(108.716437, 90.24041)"><g><path d="M 10.640625 -12.40625 L 7.1875 -12.40625 L 7.1875 -13.734375 C 7.1875 -13.867188 7.132812 -13.988281 7.03125 -14.09375 C 6.9375 -14.195312 6.820312 -14.25 6.6875 -14.25 L 5.25 -14.25 C 5.113281 -14.25 5 -14.195312 4.90625 -14.09375 C 4.8125 -13.988281 4.765625 -13.867188 4.765625 -13.734375 L 4.765625 -10.75 C 4.765625 -10.601562 4.8125 -10.476562 4.90625 -10.375 C 5 -10.269531 5.113281 -10.21875 5.25 -10.21875 L 7.59375 -10.21875 C 9.75 -10.1875 10.828125 -9.046875 10.828125 -6.796875 L 10.828125 -3.171875 C 10.828125 -0.878906 9.75 0.265625 7.59375 0.265625 L 4.53125 0.265625 C 2.375 0.265625 1.296875 -0.878906 1.296875 -3.171875 L 1.296875 -4.921875 L 4.765625 -4.921875 L 4.765625 -3.046875 C 4.765625 -2.898438 4.8125 -2.773438 4.90625 -2.671875 C 5 -2.578125 5.113281 -2.53125 5.25 -2.53125 L 6.875 -2.53125 C 7.007812 -2.53125 7.125 -2.578125 7.21875 -2.671875 C 7.3125 -2.773438 7.359375 -2.898438 7.359375 -3.046875 L 7.359375 -6.34375 C 7.359375 -6.488281 7.3125 -6.613281 7.21875 -6.71875 C 7.125 -6.820312 7.007812 -6.875 6.875 -6.875 L 4.53125 -6.875 C 2.375 -6.875 1.296875 -8.015625 1.296875 -10.296875 L 1.296875 -13.65625 C 1.296875 -15.945312 2.375 -17.09375 4.53125 -17.09375 L 7.421875 -17.09375 C 9.566406 -17.09375 10.640625 -15.945312 10.640625 -13.65625 Z M 10.640625 -12.40625 "/></g></g></g><g fill="#000000" fill-opacity="1"><g transform="translate(120.630683, 90.24041)"><g><path d="M 7.984375 -17.09375 C 10.140625 -17.09375 11.21875 -15.945312 11.21875 -13.65625 L 11.21875 0 L 7.578125 0 L 7.578125 -5.640625 L 4.9375 -5.640625 L 4.9375 0 L 1.296875 0 L 1.296875 -13.65625 C 1.296875 -15.945312 2.375 -17.09375 4.53125 -17.09375 Z M 4.9375 -8.453125 L 7.578125 -8.453125 L 7.578125 -14.09375 C 7.578125 -14.238281 7.523438 -14.363281 7.421875 -14.46875 C 7.328125 -14.570312 7.210938 -14.625 7.078125 -14.625 L 5.4375 -14.625 C 5.300781 -14.625 5.179688 -14.570312 5.078125 -14.46875 C 4.984375 -14.363281 4.9375 -14.238281 4.9375 -14.09375 Z M 4.9375 -8.453125 "/></g></g></g><g fill="#000000" fill-opacity="1"><g transform="translate(133.247292, 90.24041)"><g><path d="M 10.953125 0 L 7.3125 0 L 7.3125 -13.96875 C 7.3125 -14.101562 7.265625 -14.222656 7.171875 -14.328125 C 7.078125 -14.429688 6.957031 -14.484375 6.8125 -14.484375 L 5.40625 -14.484375 C 5.269531 -14.484375 5.15625 -14.429688 5.0625 -14.328125 C 4.96875 -14.222656 4.921875 -14.101562 4.921875 -13.96875 L 4.921875 0 L 1.28125 0 L 1.28125 -13.65625 C 1.28125 -15.945312 2.351562 -17.09375 4.5 -17.09375 L 7.734375 -17.09375 C 9.878906 -17.09375 10.953125 -15.945312 10.953125 -13.65625 Z M 10.953125 0 "/></g></g></g><g fill="#000000" fill-opacity="1"><g transform="translate(145.343629, 90.24041)"><g><path d="M 10.640625 -12.40625 L 7.1875 -12.40625 L 7.1875 -13.734375 C 7.1875 -13.867188 7.132812 -13.988281 7.03125 -14.09375 C 6.9375 -14.195312 6.820312 -14.25 6.6875 -14.25 L 5.25 -14.25 C 5.113281 -14.25 5 -14.195312 4.90625 -14.09375 C 4.8125 -13.988281 4.765625 -13.867188 4.765625 -13.734375 L 4.765625 -10.75 C 4.765625 -10.601562 4.8125 -10.476562 4.90625 -10.375 C 5 -10.269531 5.113281 -10.21875 5.25 -10.21875 L 7.59375 -10.21875 C 9.75 -10.1875 10.828125 -9.046875 10.828125 -6.796875 L 10.828125 -3.171875 C 10.828125 -0.878906 9.75 0.265625 7.59375 0.265625 L 4.53125 0.265625 C 2.375 0.265625 1.296875 -0.878906 1.296875 -3.171875 L 1.296875 -4.921875 L 4.765625 -4.921875 L 4.765625 -3.046875 C 4.765625 -2.898438 4.8125 -2.773438 4.90625 -2.671875 C 5 -2.578125 5.113281 -2.53125 5.25 -2.53125 L 6.875 -2.53125 C 7.007812 -2.53125 7.125 -2.578125 7.21875 -2.671875 C 7.3125 -2.773438 7.359375 -2.898438 7.359375 -3.046875 L 7.359375 -6.34375 C 7.359375 -6.488281 7.3125 -6.613281 7.21875 -6.71875 C 7.125 -6.820312 7.007812 -6.875 6.875 -6.875 L 4.53125 -6.875 C 2.375 -6.875 1.296875 -8.015625 1.296875 -10.296875 L 1.296875 -13.65625 C 1.296875 -15.945312 2.375 -17.09375 4.53125 -17.09375 L 7.421875 -17.09375 C 9.566406 -17.09375 10.640625 -15.945312 10.640625 -13.65625 Z M 10.640625 -12.40625 "/></g></g></g><g fill="#000000" fill-opacity="1"><g transform="translate(157.257876, 90.24041)"><g><path d="M 7.984375 -17.09375 C 10.140625 -17.09375 11.21875 -15.945312 11.21875 -13.65625 L 11.21875 0 L 7.578125 0 L 7.578125 -5.640625 L 4.9375 -5.640625 L 4.9375 0 L 1.296875 0 L 1.296875 -13.65625 C 1.296875 -15.945312 2.375 -17.09375 4.53125 -17.09375 Z M 4.9375 -8.453125 L 7.578125 -8.453125 L 7.578125 -14.09375 C 7.578125 -14.238281 7.523438 -14.363281 7.421875 -14.46875 C 7.328125 -14.570312 7.210938 -14.625 7.078125 -14.625 L 5.4375 -14.625 C 5.300781 -14.625 5.179688 -14.570312 5.078125 -14.46875 C 4.984375 -14.363281 4.9375 -14.238281 4.9375 -14.09375 Z M 4.9375 -8.453125 "/></g></g></g><g fill="#000000" fill-opacity="1"><g transform="translate(169.874484, 90.24041)"><g><path d="M 4.9375 -6.890625 L 4.9375 0 L 1.296875 0 L 1.296875 -16.828125 L 7.78125 -16.828125 C 9.925781 -16.828125 11 -15.679688 11 -13.390625 L 11 -11.453125 C 11 -10.054688 10.503906 -9.171875 9.515625 -8.796875 C 10.390625 -8.484375 10.828125 -7.769531 10.828125 -6.65625 L 10.828125 0 L 7.1875 0 L 7.1875 -6.375 C 7.1875 -6.71875 7.019531 -6.890625 6.6875 -6.890625 Z M 4.9375 -14.359375 L 4.9375 -9.4375 L 6.875 -9.4375 C 7.007812 -9.4375 7.125 -9.488281 7.21875 -9.59375 C 7.3125 -9.695312 7.359375 -9.820312 7.359375 -9.96875 L 7.359375 -13.84375 C 7.359375 -13.976562 7.3125 -14.097656 7.21875 -14.203125 C 7.125 -14.304688 7.007812 -14.359375 6.875 -14.359375 Z M 4.9375 -14.359375 "/></g></g></g></svg>